<?xml version="1.0"?>
<svg width="225" height="72" xmlns="http://www.w3.org/2000/svg" xmlns:svg="http://www.w3.org/2000/svg">
 <g class="layer">
  <title>Layer 1</title>
  <path d="m9.34,42.71l8.01,-18.43l2.69,0l0,5.21l-5.69,13.22l4.24,0l0,-2.37c0,-0.58 0.96,-0.62 1.45,-0.57l0,7.28c-1.33,0 -1.52,-0.44 -1.45,-0.67l0,-2.06l-5.01,0l-12.4,27.68l-0.46,0l3.15,-9.56c0,0 -2.79,-1.08 -1.86,-3.4c0.93,-2.33 6.51,-14.72 6.51,-14.72l-6.51,0l0,-1.61l7.33,0z" fill="#FF9900" id="svg_23"/>
  <path d="m30.21,42.71l-8,-18.43l-2.69,0l0,5.21l5.68,13.22l-4.23,0l0,-2.37c0,-0.58 -0.97,-0.62 -1.45,-0.57l0,7.28c1.32,0 1.52,-0.44 1.45,-0.67l0,-2.06l5.01,0l12.39,27.68l0.47,0l-3.15,-9.56c0,0 2.79,-1.08 1.86,-3.4c-0.93,-2.33 -6.51,-14.72 -6.51,-14.72l6.51,0l0,-1.61l-7.34,0z" fill="#FF9900" id="svg_24"/>
  <path clip-rule="evenodd" d="m19.83,21.59c3.02,0 5.47,-2.45 5.47,-5.48c0,-3.02 -2.45,-5.47 -5.47,-5.47c-3.02,0 -5.48,2.45 -5.48,5.47c0,3.03 2.46,5.48 5.48,5.48zm0,3c4.68,0 8.47,-3.8 8.47,-8.48c0,-4.67 -3.79,-8.47 -8.47,-8.47c-4.68,0 -8.47,3.8 -8.47,8.47c0,4.68 3.79,8.48 8.47,8.48z" fill="#333333" fill-rule="evenodd" id="svg_25"/>
  <path d="m18.28,0l3.1,0l0,8.16l-3.1,0l0,-8.16z" fill="#333333" id="svg_26"/>
  <rect fill="#FF0000" height="0" id="svg_27" stroke="#000000" width="0" x="49.83" y="44.33"/>
  <text fill="#000000" font-family="Serif" font-size="24" id="svg_29" stroke-width="0" text-anchor="middle" x="55.83" xml:space="preserve" y="17.33"/>
  <text fill="#000000" font-family="Serif" font-size="38" font-weight="bold" id="svg_30" stroke-width="0" text-anchor="middle" x="107.83" xml:space="preserve" y="47.33">Evclid</text>
 </g>
</svg>